<svg xmlns="http://www.w3.org/2000/svg" xmlns:xlink="http://www.w3.org/1999/xlink" width="500" zoomAndPan="magnify" viewBox="0 0 375 374.999991" height="500" preserveAspectRatio="xMidYMid meet" version="1.0"><defs><clipPath id="c4563827bc"><path d="M 3.429688 3.429688 L 371.679688 3.429688 L 371.679688 371.679688 L 3.429688 371.679688 Z M 3.429688 3.429688 " clip-rule="nonzero"/></clipPath></defs><g clip-path="url(#c4563827bc)"><path fill="#a9bfaf" d="M 267.4375 102.230469 C 267.4375 156.789062 232.519531 201.011719 189.414062 201.011719 C 146.328125 201.011719 111.40625 156.789062 111.40625 102.230469 C 111.40625 47.652344 146.328125 3.429688 189.414062 3.429688 C 232.519531 3.429688 267.4375 47.652344 267.4375 102.230469 Z M 102.230469 107.59375 C 156.789062 107.59375 201.011719 142.515625 201.011719 185.621094 C 201.011719 228.707031 156.789062 263.628906 102.230469 263.628906 C 47.652344 263.628906 3.429688 228.707031 3.429688 185.621094 C 3.429688 142.515625 47.652344 107.59375 102.230469 107.59375 Z M 107.59375 272.804688 C 107.59375 218.246094 142.515625 174.023438 185.621094 174.023438 C 228.707031 174.023438 263.628906 218.246094 263.628906 272.804688 C 263.628906 327.382812 228.707031 371.605469 185.621094 371.605469 C 142.515625 371.605469 107.59375 327.382812 107.59375 272.804688 Z M 272.804688 267.4375 C 218.246094 267.4375 174.023438 232.519531 174.023438 189.414062 C 174.023438 146.328125 218.246094 111.40625 272.804688 111.40625 C 327.382812 111.40625 371.605469 146.328125 371.605469 189.414062 C 371.605469 232.519531 327.382812 267.4375 272.804688 267.4375 Z M 272.804688 267.4375 " fill-opacity="1" fill-rule="nonzero"/></g></svg>